<?xml version="1.0" ?><svg contentScriptType="text/ecmascript" contentStyleType="text/css" enable-background="new 0 0 2048 2048" height="2048px" id="Layer_1" preserveAspectRatio="xMidYMid meet" version="1.1" viewBox="28.0 0 1636.0 2048" width="1636.0px" xml:space="preserve" xmlns="http://www.w3.org/2000/svg" xmlns:xlink="http://www.w3.org/1999/xlink" zoomAndPan="magnify"><path d="M1440,576c0-26.667-9.333-49.333-28-68s-41.333-28-68-28s-49.333,9.333-68,28s-28,41.333-28,68s9.333,49.333,28,68  c18.667,18.667,41.333,28,68,28s49.333-9.333,68-28C1430.667,625.333,1440,602.667,1440,576z M1664,288  c0,166-25.167,309.5-75.5,430.5S1453.667,959.667,1335,1079c-54,53.333-119,112-195,176l-20,379c-1.333,10.667-6.667,19.333-16,26  l-384,224c-4.667,2.667-10,4-16,4c-8,0-15.667-3-23-9l-64-64c-8.667-9.333-11.333-20-8-32l85-276l-281-281l-276,85c-2,0.667-5,1-9,1  c-9.333,0-17-3-23-9l-64-64c-11.333-12.667-13-25.667-5-39l224-384c6.667-9.333,15.333-14.667,26-16l379-20  c64-76,122.667-141,176-195c125.333-124.667,244.667-210.667,358-258s257-71,431-71c9.333,0,17.333,3.167,24,9.5  S1664,279.333,1664,288z"/></svg>